<svg width="24" height="24" fill="none" xmlns="http://www.w3.org/2000/svg"><path d="M15.22 7.976L12 4.756l-3.22 3.22m-3.018 6.439a1.006 1.006 0 00-2.012 0v3.22a2.616 2.616 0 002.616 2.615h11.268a2.616 2.616 0 002.616-2.616v-3.22a1.006 1.006 0 00-2.012 0v3.22a.604.604 0 01-.604.604H6.366a.604.604 0 01-.604-.604v-3.22z" fill="#1464F4"/><path d="M12 15.42c-.556 0-1.006-.45-1.006-1.005V8.982H8.78a1.006 1.006 0 01-.711-1.718l3.22-3.22a1.006 1.006 0 011.422 0l3.22 3.22a1.006 1.006 0 01-.711 1.718h-2.214v5.433c0 .555-.45 1.006-1.006 1.006z" fill="#1464F4"/></svg>